<svg width="64" height="64" viewBox="0 0 64 64" fill="none" xmlns="http://www.w3.org/2000/svg">
<rect width="64" height="64" rx="32" fill="#009689"/>
<path d="M22.6667 34.3333C22.4459 34.3341 22.2294 34.2722 22.0425 34.1548C21.8555 34.0374 21.7056 33.8694 21.6103 33.6703C21.515 33.4711 21.4782 33.249 21.5041 33.0298C21.53 32.8105 21.6176 32.6031 21.7567 32.4317L33.3067 20.5317C33.3933 20.4317 33.5114 20.3641 33.6415 20.34C33.7716 20.316 33.906 20.3368 34.0227 20.3993C34.1394 20.4617 34.2314 20.5619 34.2836 20.6835C34.3358 20.805 34.3451 20.9408 34.31 21.0683L32.07 28.0917C32.004 28.2684 31.9818 28.4586 32.0054 28.6458C32.029 28.8331 32.0976 29.0118 32.2055 29.1667C32.3133 29.3215 32.4571 29.4479 32.6245 29.535C32.7919 29.6221 32.978 29.6673 33.1667 29.6667H41.3333C41.5541 29.6659 41.7706 29.7278 41.9576 29.8452C42.1446 29.9626 42.2944 30.1306 42.3897 30.3297C42.485 30.5289 42.5218 30.751 42.4959 30.9702C42.47 31.1895 42.3824 31.3969 42.2433 31.5683L30.6933 43.4683C30.6067 43.5683 30.4886 43.6359 30.3585 43.66C30.2284 43.684 30.094 43.6631 29.9773 43.6007C29.8607 43.5383 29.7687 43.4381 29.7165 43.3165C29.6642 43.195 29.6549 43.0592 29.69 42.9317L31.93 35.9083C31.9961 35.7316 32.0182 35.5414 31.9947 35.3542C31.9711 35.1669 31.9024 34.9882 31.7946 34.8333C31.6867 34.6785 31.5429 34.5521 31.3755 34.465C31.2081 34.3779 31.0221 34.3327 30.8333 34.3333H22.6667Z" fill="white" stroke="white" stroke-width="1.66667" stroke-linecap="round" stroke-linejoin="round"/>
</svg>
