<svg width="32" height="32" viewBox="0 0 32 32" fill="none" xmlns="http://www.w3.org/2000/svg">
<path d="M0 10C0 4.47715 4.47715 0 10 0H22C27.5228 0 32 4.47715 32 10V22C32 27.5228 27.5228 32 22 32H10C4.47715 32 0 27.5228 0 22V10Z" fill="white"/>
<path d="M9.33337 17.6667C9.17567 17.6672 9.02106 17.623 8.8875 17.5391C8.75393 17.4553 8.6469 17.3353 8.57883 17.193C8.51076 17.0508 8.48445 16.8922 8.50295 16.7355C8.52146 16.5789 8.58402 16.4308 8.68337 16.3083L16.9334 7.80833C16.9953 7.7369 17.0796 7.68863 17.1725 7.67144C17.2655 7.65426 17.3615 7.66918 17.4448 7.71375C17.5281 7.75833 17.5939 7.82992 17.6311 7.91676C17.6684 8.0036 17.6751 8.10054 17.65 8.19167L16.05 13.2083C16.0029 13.3346 15.987 13.4704 16.0039 13.6042C16.0207 13.7379 16.0698 13.8656 16.1468 13.9762C16.2238 14.0868 16.3265 14.1771 16.4461 14.2393C16.5657 14.3015 16.6986 14.3338 16.8334 14.3333H22.6667C22.8244 14.3328 22.979 14.377 23.1126 14.4609C23.2461 14.5447 23.3532 14.6647 23.4212 14.807C23.4893 14.9492 23.5156 15.1078 23.4971 15.2645C23.4786 15.4211 23.4161 15.5692 23.3167 15.6917L15.0667 24.1917C15.0048 24.2631 14.9205 24.3114 14.8275 24.3286C14.7346 24.3457 14.6386 24.3308 14.5553 24.2862C14.4719 24.2417 14.4062 24.1701 14.3689 24.0832C14.3316 23.9964 14.325 23.8995 14.35 23.8083L15.95 18.7917C15.9972 18.6654 16.0131 18.5296 15.9962 18.3958C15.9794 18.2621 15.9303 18.1344 15.8533 18.0238C15.7763 17.9132 15.6736 17.8229 15.554 17.7607C15.4344 17.6985 15.3015 17.6662 15.1667 17.6667H9.33337Z" fill="#009689" stroke="#009689" stroke-width="1.66667" stroke-linecap="round" stroke-linejoin="round"/>
</svg>
